<svg width="256" height="256" viewBox="0 0 256 256" fill="none" xmlns="http://www.w3.org/2000/svg">
  <title>Video Caption App logo</title>
  <desc>A rounded video player tile with a play button, caption lines, and audio bars.</desc>
  <defs>
    <linearGradient id="logo-bg" x1="36" y1="28" x2="220" y2="228" gradientUnits="userSpaceOnUse">
      <stop offset="0" stop-color="#3D66FF" />
      <stop offset="1" stop-color="#0F9FA8" />
    </linearGradient>
    <linearGradient id="logo-panel" x1="56" y1="60" x2="198" y2="178" gradientUnits="userSpaceOnUse">
      <stop offset="0" stop-color="#F8FBFF" />
      <stop offset="1" stop-color="#D9E8FF" />
    </linearGradient>
    <linearGradient id="logo-bars" x1="54" y1="184" x2="202" y2="184" gradientUnits="userSpaceOnUse">
      <stop offset="0" stop-color="#90F0FF" />
      <stop offset="1" stop-color="#FFD46E" />
    </linearGradient>
  </defs>

  <rect x="20" y="20" width="216" height="216" rx="44" fill="url(#logo-bg)" />
  <rect x="36" y="36" width="184" height="184" rx="34" fill="#0D1B4D" fill-opacity="0.18" />

  <rect x="46" y="58" width="164" height="108" rx="24" fill="url(#logo-panel)" />
  <path
    d="M93 92.5C93 87.2868 98.7138 84.0743 103.178 86.7917L134.636 105.935C138.891 108.525 138.891 114.688 134.636 117.278L103.178 136.421C98.7138 139.139 93 135.926 93 130.713V92.5Z"
    fill="#FF9559"
  />
  <rect x="148" y="90" width="38" height="12" rx="6" fill="#335BD6" fill-opacity="0.92" />
  <rect x="148" y="110" width="30" height="12" rx="6" fill="#335BD6" fill-opacity="0.72" />
  <rect x="148" y="130" width="42" height="12" rx="6" fill="#335BD6" fill-opacity="0.55" />

  <rect x="54" y="182" width="148" height="30" rx="15" fill="#0D1B4D" fill-opacity="0.22" />
  <rect x="66" y="190" width="10" height="14" rx="5" fill="url(#logo-bars)" />
  <rect x="82" y="186" width="10" height="22" rx="5" fill="url(#logo-bars)" />
  <rect x="98" y="192" width="10" height="10" rx="5" fill="url(#logo-bars)" />
  <rect x="114" y="184" width="10" height="26" rx="5" fill="url(#logo-bars)" />
  <rect x="130" y="188" width="10" height="18" rx="5" fill="url(#logo-bars)" />
  <rect x="146" y="186" width="10" height="22" rx="5" fill="url(#logo-bars)" />
  <rect x="162" y="192" width="10" height="10" rx="5" fill="url(#logo-bars)" />
  <rect x="178" y="189" width="10" height="16" rx="5" fill="url(#logo-bars)" />

  <path
    d="M188 54C193.523 54 198 49.5228 198 44C198 49.5228 202.477 54 208 54C202.477 54 198 58.4772 198 64C198 58.4772 193.523 54 188 54Z"
    fill="#FFD46E"
    fill-opacity="0.92"
  />
</svg>
